<svg id="visual" viewBox="0 0 900 450" width="900" height="450" xmlns="http://www.w3.org/2000/svg" xmlns:xlink="http://www.w3.org/1999/xlink" version="1.1"><path d="M0 436L4.8 435.8C9.7 435.7 19.3 435.3 29 432.3C38.7 429.3 48.3 423.7 58 420.7C67.7 417.7 77.3 417.3 87 417.7C96.7 418 106.3 419 116 422.3C125.7 425.7 135.3 431.3 145 434.7C154.7 438 164.3 439 174 435.3C183.7 431.7 193.3 423.3 203 418.8C212.7 414.3 222.3 413.7 232 414.8C241.7 416 251.3 419 261 419C270.7 419 280.3 416 290 416C299.7 416 309.3 419 319 419.5C328.7 420 338.3 418 348 418.5C357.7 419 367.3 422 377 425.3C386.7 428.7 396.3 432.3 406 434.8C415.7 437.3 425.3 438.7 435.2 438C445 437.3 455 434.7 464.8 431C474.7 427.3 484.3 422.7 494 419.3C503.7 416 513.3 414 523 413.5C532.7 413 542.3 414 552 413.7C561.7 413.3 571.3 411.7 581 416.5C590.7 421.3 600.3 432.7 610 436.2C619.7 439.7 629.3 435.3 639 432.7C648.7 430 658.3 429 668 428.2C677.7 427.3 687.3 426.7 697 429C706.7 431.3 716.3 436.7 726 439.2C735.7 441.7 745.3 441.3 755 439.3C764.7 437.3 774.3 433.7 784 433.3C793.7 433 803.3 436 813 433.8C822.7 431.7 832.3 424.3 842 422.8C851.7 421.3 861.3 425.7 871 425.3C880.7 425 890.3 420 895.2 417.5L900 415L900 451L895.2 451C890.3 451 880.7 451 871 451C861.3 451 851.7 451 842 451C832.3 451 822.7 451 813 451C803.3 451 793.7 451 784 451C774.3 451 764.7 451 755 451C745.3 451 735.7 451 726 451C716.3 451 706.7 451 697 451C687.3 451 677.7 451 668 451C658.3 451 648.7 451 639 451C629.3 451 619.7 451 610 451C600.3 451 590.7 451 581 451C571.3 451 561.7 451 552 451C542.3 451 532.7 451 523 451C513.3 451 503.7 451 494 451C484.3 451 474.7 451 464.8 451C455 451 445 451 435.2 451C425.3 451 415.7 451 406 451C396.3 451 386.7 451 377 451C367.3 451 357.7 451 348 451C338.3 451 328.7 451 319 451C309.3 451 299.7 451 290 451C280.3 451 270.7 451 261 451C251.3 451 241.7 451 232 451C222.3 451 212.7 451 203 451C193.3 451 183.7 451 174 451C164.3 451 154.7 451 145 451C135.3 451 125.7 451 116 451C106.3 451 96.7 451 87 451C77.3 451 67.7 451 58 451C48.3 451 38.7 451 29 451C19.3 451 9.7 451 4.8 451L0 451Z" fill="#FCAF3C" stroke-linecap="round" stroke-linejoin="miter"></path></svg>