<svg id="visual" viewBox="0 0 900 600" width="900" height="600" xmlns="http://www.w3.org/2000/svg" xmlns:xlink="http://www.w3.org/1999/xlink" version="1.1"><path d="M0 85L29 85L29 137L58 137L58 144L87 144L87 195L116 195L116 200L145 200L145 93L174 93L174 155L203 155L203 213L232 213L232 170L261 170L261 214L290 214L290 203L319 203L319 200L348 200L348 135L377 135L377 148L406 148L406 111L435 111L435 154L465 154L465 162L494 162L494 164L523 164L523 153L552 153L552 210L581 210L581 147L610 147L610 190L639 190L639 99L668 99L668 87L697 87L697 127L726 127L726 90L755 90L755 205L784 205L784 78L813 78L813 195L842 195L842 87L871 87L871 127L900 127L900 75L900 0L900 0L871 0L871 0L842 0L842 0L813 0L813 0L784 0L784 0L755 0L755 0L726 0L726 0L697 0L697 0L668 0L668 0L639 0L639 0L610 0L610 0L581 0L581 0L552 0L552 0L523 0L523 0L494 0L494 0L465 0L465 0L435 0L435 0L406 0L406 0L377 0L377 0L348 0L348 0L319 0L319 0L290 0L290 0L261 0L261 0L232 0L232 0L203 0L203 0L174 0L174 0L145 0L145 0L116 0L116 0L87 0L87 0L58 0L58 0L29 0L29 0L0 0Z" fill="#b6ffef" stroke-linecap="square" stroke-linejoin="miter"></path></svg>