<svg id="visual" viewBox="0 0 900 900" width="900" height="900" xmlns="http://www.w3.org/2000/svg" xmlns:xlink="http://www.w3.org/1999/xlink" version="1.1"><path d="M497 900L508.3 890C519.7 880 542.3 860 561.5 840C580.7 820 596.3 800 608 780C619.7 760 627.3 740 604.7 720C582 700 529 680 520.3 660C511.7 640 547.3 620 565 600C582.7 580 582.3 560 565.8 540C549.3 520 516.7 500 511.7 480C506.7 460 529.3 440 530.3 420C531.3 400 510.7 380 523.5 360C536.3 340 582.7 320 602.5 300C622.3 280 615.7 260 602.5 240C589.3 220 569.7 200 563.8 180C558 160 566 140 559 120C552 100 530 80 526.3 60C522.7 40 537.3 20 544.7 10L552 0L900 0L900 10C900 20 900 40 900 60C900 80 900 100 900 120C900 140 900 160 900 180C900 200 900 220 900 240C900 260 900 280 900 300C900 320 900 340 900 360C900 380 900 400 900 420C900 440 900 460 900 480C900 500 900 520 900 540C900 560 900 580 900 600C900 620 900 640 900 660C900 680 900 700 900 720C900 740 900 760 900 780C900 800 900 820 900 840C900 860 900 880 900 890L900 900Z" fill="#f0f4f8"></path><path d="M631 900L632 890C633 880 635 860 641.8 840C648.7 820 660.3 800 643.5 780C626.7 760 581.3 740 564.2 720C547 700 558 680 571 660C584 640 599 620 603 600C607 580 600 560 601.3 540C602.7 520 612.3 500 612 480C611.7 460 601.3 440 586.2 420C571 400 551 380 563.3 360C575.7 340 620.3 320 645 300C669.7 280 674.3 260 653.7 240C633 220 587 200 565.5 180C544 160 547 140 567.2 120C587.3 100 624.7 80 623.3 60C622 40 582 20 562 10L542 0L900 0L900 10C900 20 900 40 900 60C900 80 900 100 900 120C900 140 900 160 900 180C900 200 900 220 900 240C900 260 900 280 900 300C900 320 900 340 900 360C900 380 900 400 900 420C900 440 900 460 900 480C900 500 900 520 900 540C900 560 900 580 900 600C900 620 900 640 900 660C900 680 900 700 900 720C900 740 900 760 900 780C900 800 900 820 900 840C900 860 900 880 900 890L900 900Z" fill="#edf1f5"></path><path d="M635 900L642.8 890C650.7 880 666.3 860 661.5 840C656.7 820 631.3 800 615.7 780C600 760 594 740 610.5 720C627 700 666 680 682.5 660C699 640 693 620 692.7 600C692.3 580 697.7 560 696.3 540C695 520 687 500 689.2 480C691.3 460 703.7 440 699.2 420C694.7 400 673.3 380 653.3 360C633.3 340 614.7 320 613.2 300C611.7 280 627.3 260 645.5 240C663.7 220 684.3 200 681 180C677.7 160 650.3 140 643.5 120C636.7 100 650.3 80 660.2 60C670 40 676 20 679 10L682 0L900 0L900 10C900 20 900 40 900 60C900 80 900 100 900 120C900 140 900 160 900 180C900 200 900 220 900 240C900 260 900 280 900 300C900 320 900 340 900 360C900 380 900 400 900 420C900 440 900 460 900 480C900 500 900 520 900 540C900 560 900 580 900 600C900 620 900 640 900 660C900 680 900 700 900 720C900 740 900 760 900 780C900 800 900 820 900 840C900 860 900 880 900 890L900 900Z" fill="#ebeff3"></path><path d="M708 900L700.3 890C692.7 880 677.3 860 670.8 840C664.3 820 666.7 800 668 780C669.3 760 669.7 740 674.5 720C679.3 700 688.7 680 692.3 660C696 640 694 620 697.7 600C701.3 580 710.7 560 710 540C709.3 520 698.7 500 704.5 480C710.3 460 732.7 440 738.2 420C743.7 400 732.3 380 713 360C693.7 340 666.3 320 664 300C661.7 280 684.3 260 700 240C715.7 220 724.3 200 729.2 180C734 160 735 140 729.2 120C723.3 100 710.7 80 696.5 60C682.3 40 666.7 20 658.8 10L651 0L900 0L900 10C900 20 900 40 900 60C900 80 900 100 900 120C900 140 900 160 900 180C900 200 900 220 900 240C900 260 900 280 900 300C900 320 900 340 900 360C900 380 900 400 900 420C900 440 900 460 900 480C900 500 900 520 900 540C900 560 900 580 900 600C900 620 900 640 900 660C900 680 900 700 900 720C900 740 900 760 900 780C900 800 900 820 900 840C900 860 900 880 900 890L900 900Z" fill="#e8ecf0"></path><path d="M705 900L705.5 890C706 880 707 860 708.5 840C710 820 712 800 712.2 780C712.3 760 710.7 740 712.5 720C714.3 700 719.7 680 733.8 660C748 640 771 620 775.8 600C780.7 580 767.3 560 768.2 540C769 520 784 500 790.3 480C796.7 460 794.3 440 794.2 420C794 400 796 380 794.2 360C792.3 340 786.7 320 770.3 300C754 280 727 260 714.8 240C702.7 220 705.3 200 704.8 180C704.3 160 700.7 140 707.5 120C714.3 100 731.7 80 730.7 60C729.7 40 710.3 20 700.7 10L691 0L900 0L900 10C900 20 900 40 900 60C900 80 900 100 900 120C900 140 900 160 900 180C900 200 900 220 900 240C900 260 900 280 900 300C900 320 900 340 900 360C900 380 900 400 900 420C900 440 900 460 900 480C900 500 900 520 900 540C900 560 900 580 900 600C900 620 900 640 900 660C900 680 900 700 900 720C900 740 900 760 900 780C900 800 900 820 900 840C900 860 900 880 900 890L900 900Z" fill="#e5e9ed"></path><path d="M795 900L802.8 890C810.7 880 826.3 860 823.8 840C821.3 820 800.7 800 789.2 780C777.7 760 775.3 740 786.3 720C797.3 700 821.7 680 833.3 660C845 640 844 620 844.2 600C844.3 580 845.7 560 837.3 540C829 520 811 500 800.8 480C790.7 460 788.3 440 791.7 420C795 400 804 380 799.5 360C795 340 777 320 767.8 300C758.7 280 758.3 260 763.3 240C768.3 220 778.7 200 779.7 180C780.7 160 772.3 140 769.3 120C766.3 100 768.7 80 780.7 60C792.7 40 814.3 20 825.2 10L836 0L900 0L900 10C900 20 900 40 900 60C900 80 900 100 900 120C900 140 900 160 900 180C900 200 900 220 900 240C900 260 900 280 900 300C900 320 900 340 900 360C900 380 900 400 900 420C900 440 900 460 900 480C900 500 900 520 900 540C900 560 900 580 900 600C900 620 900 640 900 660C900 680 900 700 900 720C900 740 900 760 900 780C900 800 900 820 900 840C900 860 900 880 900 890L900 900Z" fill="#e3e7eb"></path><path d="M856 900L847.3 890C838.7 880 821.3 860 826.2 840C831 820 858 800 860.2 780C862.3 760 839.7 740 833.3 720C827 700 837 680 843.2 660C849.3 640 851.7 620 853.2 600C854.7 580 855.3 560 849 540C842.7 520 829.3 500 824.2 480C819 460 822 440 821.3 420C820.7 400 816.3 380 821.5 360C826.7 340 841.3 320 840.5 300C839.7 280 823.3 260 826.2 240C829 220 851 200 863.5 180C876 160 879 140 880.3 120C881.7 100 881.3 80 881.2 60C881 40 881 20 881 10L881 0L900 0L900 10C900 20 900 40 900 60C900 80 900 100 900 120C900 140 900 160 900 180C900 200 900 220 900 240C900 260 900 280 900 300C900 320 900 340 900 360C900 380 900 400 900 420C900 440 900 460 900 480C900 500 900 520 900 540C900 560 900 580 900 600C900 620 900 640 900 660C900 680 900 700 900 720C900 740 900 760 900 780C900 800 900 820 900 840C900 860 900 880 900 890L900 900Z" fill="#e0e4e8"></path></svg>