<?xml version="1.0" standalone="no"?><svg xmlns="http://www.w3.org/2000/svg" viewBox="0 0 1440 320"><path fill="#f3f4f5" fill-opacity="1" d="M0,128L8,133.3C16,139,32,149,48,160C64,171,80,181,96,208C112,235,128,277,144,282.7C160,288,176,256,192,245.3C208,235,224,245,240,261.3C256,277,272,299,288,304C304,309,320,299,336,250.7C352,203,368,117,384,96C400,75,416,117,432,149.3C448,181,464,203,480,176C496,149,512,75,528,48C544,21,560,43,576,42.7C592,43,608,21,624,32C640,43,656,85,672,112C688,139,704,149,720,170.7C736,192,752,224,768,197.3C784,171,800,85,816,48C832,11,848,21,864,42.7C880,64,896,96,912,112C928,128,944,128,960,128C976,128,992,128,1008,149.3C1024,171,1040,213,1056,218.7C1072,224,1088,192,1104,154.7C1120,117,1136,75,1152,80C1168,85,1184,139,1200,176C1216,213,1232,235,1248,213.3C1264,192,1280,128,1296,101.3C1312,75,1328,85,1344,85.3C1360,85,1376,75,1392,101.3C1408,128,1424,192,1432,224L1440,256L1440,0L1432,0C1424,0,1408,0,1392,0C1376,0,1360,0,1344,0C1328,0,1312,0,1296,0C1280,0,1264,0,1248,0C1232,0,1216,0,1200,0C1184,0,1168,0,1152,0C1136,0,1120,0,1104,0C1088,0,1072,0,1056,0C1040,0,1024,0,1008,0C992,0,976,0,960,0C944,0,928,0,912,0C896,0,880,0,864,0C848,0,832,0,816,0C800,0,784,0,768,0C752,0,736,0,720,0C704,0,688,0,672,0C656,0,640,0,624,0C608,0,592,0,576,0C560,0,544,0,528,0C512,0,496,0,480,0C464,0,448,0,432,0C416,0,400,0,384,0C368,0,352,0,336,0C320,0,304,0,288,0C272,0,256,0,240,0C224,0,208,0,192,0C176,0,160,0,144,0C128,0,112,0,96,0C80,0,64,0,48,0C32,0,16,0,8,0L0,0Z"></path></svg>