<svg id="visual" viewBox="0 0 900 600" width="900" height="600" xmlns="http://www.w3.org/2000/svg" xmlns:xlink="http://www.w3.org/1999/xlink" version="1.1"><path d="M25 0L31.3 3.3C37.7 6.7 50.3 13.3 50 20C49.7 26.7 36.3 33.3 31.2 40C26 46.7 29 53.3 34 60C39 66.7 46 73.3 48.7 80C51.3 86.7 49.7 93.3 52.3 100C55 106.7 62 113.3 62.5 120C63 126.7 57 133.3 50.2 140C43.3 146.7 35.7 153.3 36 160C36.3 166.7 44.7 173.3 50.3 180C56 186.7 59 193.3 56.2 200C53.3 206.7 44.7 213.3 45.7 220C46.7 226.7 57.3 233.3 62.5 240C67.7 246.7 67.3 253.3 66.3 260C65.3 266.7 63.7 273.3 58.8 280C54 286.7 46 293.3 45.3 300C44.7 306.7 51.3 313.3 54.3 320C57.3 326.7 56.7 333.3 53.7 340C50.7 346.7 45.3 353.3 47.5 360C49.7 366.7 59.3 373.3 60 380C60.7 386.7 52.3 393.3 48.3 400C44.3 406.7 44.7 413.3 44.7 420C44.7 426.7 44.3 433.3 46.2 440C48 446.7 52 453.3 55.8 460C59.7 466.7 63.3 473.3 58.2 480C53 486.7 39 493.3 36.5 500C34 506.7 43 513.3 44.2 520C45.3 526.7 38.7 533.3 35.3 540C32 546.7 32 553.3 33.7 560C35.3 566.7 38.7 573.3 44 580C49.3 586.7 56.7 593.3 60.3 596.7L64 600" fill="none" stroke-linecap="round" stroke-linejoin="miter" stroke="#8EEDC7" stroke-width="40"></path></svg>