<svg id="visual" viewBox="0 0 900 600" width="900" height="600" xmlns="http://www.w3.org/2000/svg" xmlns:xlink="http://www.w3.org/1999/xlink" version="1.1"><path d="M0 301L13.7 292.5C27.3 284 54.7 267 82 267.3C109.3 267.7 136.7 285.3 163.8 281C191 276.7 218 250.3 245.2 237.5C272.3 224.7 299.7 225.3 327 225.5C354.3 225.7 381.7 225.3 409 233.7C436.3 242 463.7 259 491 258.3C518.3 257.7 545.7 239.3 573 230C600.3 220.7 627.7 220.3 654.8 222.3C682 224.3 709 228.7 736.2 233.2C763.3 237.7 790.7 242.3 818 248.7C845.3 255 872.7 263 886.3 267L900 271L900 0L886.3 0C872.7 0 845.3 0 818 0C790.7 0 763.3 0 736.2 0C709 0 682 0 654.8 0C627.7 0 600.3 0 573 0C545.7 0 518.3 0 491 0C463.7 0 436.3 0 409 0C381.7 0 354.3 0 327 0C299.7 0 272.3 0 245.2 0C218 0 191 0 163.8 0C136.7 0 109.3 0 82 0C54.7 0 27.3 0 13.7 0L0 0Z" fill="#8eedc7"></path><path d="M0 198L13.7 194.2C27.3 190.3 54.7 182.7 82 183.5C109.3 184.3 136.7 193.7 163.8 203.8C191 214 218 225 245.2 224C272.3 223 299.7 210 327 210.7C354.3 211.3 381.7 225.7 409 226C436.3 226.3 463.7 212.7 491 201.7C518.3 190.7 545.7 182.3 573 188.7C600.3 195 627.7 216 654.8 224.2C682 232.3 709 227.7 736.2 224.8C763.3 222 790.7 221 818 222.8C845.3 224.7 872.7 229.3 886.3 231.7L900 234L900 0L886.3 0C872.7 0 845.3 0 818 0C790.7 0 763.3 0 736.2 0C709 0 682 0 654.8 0C627.7 0 600.3 0 573 0C545.7 0 518.3 0 491 0C463.7 0 436.3 0 409 0C381.7 0 354.3 0 327 0C299.7 0 272.3 0 245.2 0C218 0 191 0 163.8 0C136.7 0 109.3 0 82 0C54.7 0 27.3 0 13.7 0L0 0Z" fill="#b1efbd"></path><path d="M0 165L13.7 167.3C27.3 169.7 54.7 174.3 82 171.7C109.3 169 136.7 159 163.8 157.2C191 155.3 218 161.7 245.2 158.7C272.3 155.7 299.7 143.3 327 140.5C354.3 137.7 381.7 144.3 409 151C436.3 157.7 463.7 164.3 491 162.2C518.3 160 545.7 149 573 143.8C600.3 138.7 627.7 139.3 654.8 141.3C682 143.3 709 146.7 736.2 153C763.3 159.3 790.7 168.7 818 164.7C845.3 160.7 872.7 143.3 886.3 134.7L900 126L900 0L886.3 0C872.7 0 845.3 0 818 0C790.7 0 763.3 0 736.2 0C709 0 682 0 654.8 0C627.7 0 600.3 0 573 0C545.7 0 518.3 0 491 0C463.7 0 436.3 0 409 0C381.7 0 354.3 0 327 0C299.7 0 272.3 0 245.2 0C218 0 191 0 163.8 0C136.7 0 109.3 0 82 0C54.7 0 27.3 0 13.7 0L0 0Z" fill="#cff1b9"></path><path d="M0 108L13.7 110C27.3 112 54.7 116 82 113.8C109.3 111.7 136.7 103.3 163.8 104.5C191 105.7 218 116.3 245.2 116.5C272.3 116.7 299.7 106.3 327 102.5C354.3 98.7 381.7 101.3 409 100.3C436.3 99.3 463.7 94.7 491 97C518.3 99.3 545.7 108.7 573 112.5C600.3 116.3 627.7 114.7 654.8 112.5C682 110.3 709 107.7 736.2 106.2C763.3 104.7 790.7 104.3 818 109.5C845.3 114.7 872.7 125.3 886.3 130.7L900 136L900 0L886.3 0C872.7 0 845.3 0 818 0C790.7 0 763.3 0 736.2 0C709 0 682 0 654.8 0C627.7 0 600.3 0 573 0C545.7 0 518.3 0 491 0C463.7 0 436.3 0 409 0C381.7 0 354.3 0 327 0C299.7 0 272.3 0 245.2 0C218 0 191 0 163.8 0C136.7 0 109.3 0 82 0C54.7 0 27.3 0 13.7 0L0 0Z" fill="#e9f2bb"></path><path d="M0 66L13.7 63.2C27.3 60.3 54.7 54.7 82 54.5C109.3 54.3 136.7 59.7 163.8 58.3C191 57 218 49 245.2 43.2C272.3 37.3 299.7 33.7 327 38.2C354.3 42.7 381.7 55.3 409 60.7C436.3 66 463.7 64 491 57.8C518.3 51.7 545.7 41.3 573 44.3C600.3 47.3 627.7 63.7 654.8 66.5C682 69.3 709 58.7 736.2 56C763.3 53.3 790.7 58.7 818 58.5C845.3 58.3 872.7 52.7 886.3 49.8L900 47L900 0L886.3 0C872.7 0 845.3 0 818 0C790.7 0 763.3 0 736.2 0C709 0 682 0 654.8 0C627.7 0 600.3 0 573 0C545.7 0 518.3 0 491 0C463.7 0 436.3 0 409 0C381.7 0 354.3 0 327 0C299.7 0 272.3 0 245.2 0C218 0 191 0 163.8 0C136.7 0 109.3 0 82 0C54.7 0 27.3 0 13.7 0L0 0Z" fill="#fff3c4"></path></svg>