<svg xmlns="http://www.w3.org/2000/svg" viewBox="0 0 1440 320"><path fill="#FADB5F" fill-opacity="1" d="M0,256L26.7,240C53.3,224,107,192,160,197.3C213.3,203,267,245,320,250.7C373.3,256,427,224,480,224C533.3,224,587,256,640,240C693.3,224,747,160,800,149.3C853.3,139,907,181,960,218.7C1013.3,256,1067,288,1120,256C1173.3,224,1227,128,1280,117.3C1333.3,107,1387,181,1413,218.7L1440,256L1440,0L1413.3,0C1386.7,0,1333,0,1280,0C1226.7,0,1173,0,1120,0C1066.7,0,1013,0,960,0C906.7,0,853,0,800,0C746.7,0,693,0,640,0C586.7,0,533,0,480,0C426.7,0,373,0,320,0C266.7,0,213,0,160,0C106.7,0,53,0,27,0L0,0Z"></path></svg>