<svg id="visual" viewBox="0 0 900 900" width="900" height="900" xmlns="http://www.w3.org/2000/svg" xmlns:xlink="http://www.w3.org/1999/xlink" version="1.1"><path d="M526 900L569.5 890C613 880 700 860 747 840C794 820 801 800 755.7 780C710.3 760 612.7 740 592.7 720C572.7 700 630.3 680 644.7 660C659 640 630 620 617.3 600C604.7 580 608.3 560 625 540C641.7 520 671.3 500 699.3 480C727.3 460 753.7 440 754 420C754.3 400 728.7 380 696 360C663.3 340 623.7 320 597.3 300C571 280 558 260 574 240C590 220 635 200 641 180C647 160 614 140 622.5 120C631 100 681 80 702.7 60C724.3 40 717.7 20 714.3 10L711 0L900 0L900 10C900 20 900 40 900 60C900 80 900 100 900 120C900 140 900 160 900 180C900 200 900 220 900 240C900 260 900 280 900 300C900 320 900 340 900 360C900 380 900 400 900 420C900 440 900 460 900 480C900 500 900 520 900 540C900 560 900 580 900 600C900 620 900 640 900 660C900 680 900 700 900 720C900 740 900 760 900 780C900 800 900 820 900 840C900 860 900 880 900 890L900 900Z" fill="#f0f4f8"></path><path d="M647 900L654.3 890C661.7 880 676.3 860 697.3 840C718.3 820 745.7 800 767.8 780C790 760 807 740 775.8 720C744.7 700 665.3 680 670.7 660C676 640 766 620 774.8 600C783.7 580 711.3 560 695.3 540C679.3 520 719.7 500 714.3 480C709 460 658 440 643.3 420C628.7 400 650.3 380 653.5 360C656.7 340 641.3 320 623 300C604.7 280 583.3 260 618 240C652.7 220 743.3 200 752.5 180C761.7 160 689.3 140 690 120C690.7 100 764.3 80 785 60C805.7 40 773.3 20 757.2 10L741 0L900 0L900 10C900 20 900 40 900 60C900 80 900 100 900 120C900 140 900 160 900 180C900 200 900 220 900 240C900 260 900 280 900 300C900 320 900 340 900 360C900 380 900 400 900 420C900 440 900 460 900 480C900 500 900 520 900 540C900 560 900 580 900 600C900 620 900 640 900 660C900 680 900 700 900 720C900 740 900 760 900 780C900 800 900 820 900 840C900 860 900 880 900 890L900 900Z" fill="#dff2fd"></path><path d="M867 900L825.3 890C783.7 880 700.3 860 679.2 840C658 820 699 800 702.8 780C706.7 760 673.3 740 659 720C644.7 700 649.3 680 647 660C644.7 640 635.3 620 635.2 600C635 580 644 560 679 540C714 520 775 500 786.5 480C798 460 760 440 727.2 420C694.3 400 666.7 380 651.3 360C636 340 633 320 655.5 300C678 280 726 260 736.7 240C747.3 220 720.7 200 726.2 180C731.7 160 769.3 140 760.5 120C751.7 100 696.3 80 690.8 60C685.3 40 729.7 20 751.8 10L774 0L900 0L900 10C900 20 900 40 900 60C900 80 900 100 900 120C900 140 900 160 900 180C900 200 900 220 900 240C900 260 900 280 900 300C900 320 900 340 900 360C900 380 900 400 900 420C900 440 900 460 900 480C900 500 900 520 900 540C900 560 900 580 900 600C900 620 900 640 900 660C900 680 900 700 900 720C900 740 900 760 900 780C900 800 900 820 900 840C900 860 900 880 900 890L900 900Z" fill="#cbf2fe"></path><path d="M852 900L851 890C850 880 848 860 820.3 840C792.7 820 739.3 800 724.2 780C709 760 732 740 729.5 720C727 700 699 680 686.7 660C674.3 640 677.7 620 704.5 600C731.3 580 781.7 560 787.5 540C793.3 520 754.7 500 733 480C711.3 460 706.7 440 714.5 420C722.3 400 742.7 380 739.2 360C735.7 340 708.3 320 724.5 300C740.7 280 800.3 260 828 240C855.7 220 851.3 200 829.7 180C808 160 769 140 743.2 120C717.3 100 704.7 80 718.5 60C732.3 40 772.7 20 792.8 10L813 0L900 0L900 10C900 20 900 40 900 60C900 80 900 100 900 120C900 140 900 160 900 180C900 200 900 220 900 240C900 260 900 280 900 300C900 320 900 340 900 360C900 380 900 400 900 420C900 440 900 460 900 480C900 500 900 520 900 540C900 560 900 580 900 600C900 620 900 640 900 660C900 680 900 700 900 720C900 740 900 760 900 780C900 800 900 820 900 840C900 860 900 880 900 890L900 900Z" fill="#b4f2fa"></path><path d="M806 900L816.3 890C826.7 880 847.3 860 851.8 840C856.3 820 844.7 800 822 780C799.3 760 765.7 740 761.3 720C757 700 782 680 794.8 660C807.7 640 808.3 620 799.2 600C790 580 771 560 757 540C743 520 734 500 735.3 480C736.7 460 748.3 440 753 420C757.7 400 755.3 380 764.2 360C773 340 793 320 792 300C791 280 769 260 765.5 240C762 220 777 200 793 180C809 160 826 140 830 120C834 100 825 80 821.5 60C818 40 820 20 821 10L822 0L900 0L900 10C900 20 900 40 900 60C900 80 900 100 900 120C900 140 900 160 900 180C900 200 900 220 900 240C900 260 900 280 900 300C900 320 900 340 900 360C900 380 900 400 900 420C900 440 900 460 900 480C900 500 900 520 900 540C900 560 900 580 900 600C900 620 900 640 900 660C900 680 900 700 900 720C900 740 900 760 900 780C900 800 900 820 900 840C900 860 900 880 900 890L900 900Z" fill="#a0f1ef"></path><path d="M844 900L849.5 890C855 880 866 860 872.5 840C879 820 881 800 862 780C843 760 803 740 800.7 720C798.3 700 833.7 680 838.7 660C843.7 640 818.3 620 810.3 600C802.3 580 811.7 560 807.7 540C803.7 520 786.3 500 794.8 480C803.3 460 837.7 440 856.2 420C874.7 400 877.3 380 866.8 360C856.3 340 832.7 320 822.8 300C813 280 817 260 817.5 240C818 220 815 200 812 180C809 160 806 140 808.8 120C811.7 100 820.3 80 826 60C831.7 40 834.3 20 835.7 10L837 0L900 0L900 10C900 20 900 40 900 60C900 80 900 100 900 120C900 140 900 160 900 180C900 200 900 220 900 240C900 260 900 280 900 300C900 320 900 340 900 360C900 380 900 400 900 420C900 440 900 460 900 480C900 500 900 520 900 540C900 560 900 580 900 600C900 620 900 640 900 660C900 680 900 700 900 720C900 740 900 760 900 780C900 800 900 820 900 840C900 860 900 880 900 890L900 900Z" fill="#92f0de"></path><path d="M834 900L837.3 890C840.7 880 847.3 860 847.5 840C847.7 820 841.3 800 836.2 780C831 760 827 740 826.2 720C825.3 700 827.7 680 836.5 660C845.3 640 860.7 620 856.3 600C852 580 828 560 829.3 540C830.7 520 857.3 500 867.2 480C877 460 870 440 866.3 420C862.7 400 862.3 380 856.7 360C851 340 840 320 840.7 300C841.3 280 853.7 260 850.5 240C847.3 220 828.7 200 823.7 180C818.7 160 827.3 140 832.5 120C837.7 100 839.3 80 848 60C856.7 40 872.3 20 880.2 10L888 0L900 0L900 10C900 20 900 40 900 60C900 80 900 100 900 120C900 140 900 160 900 180C900 200 900 220 900 240C900 260 900 280 900 300C900 320 900 340 900 360C900 380 900 400 900 420C900 440 900 460 900 480C900 500 900 520 900 540C900 560 900 580 900 600C900 620 900 640 900 660C900 680 900 700 900 720C900 740 900 760 900 780C900 800 900 820 900 840C900 860 900 880 900 890L900 900Z" fill="#8eedc7"></path></svg>