<svg id="visual" viewBox="0 0 900 600" width="900" height="600" xmlns="http://www.w3.org/2000/svg" xmlns:xlink="http://www.w3.org/1999/xlink" version="1.1"><rect x="0" y="0" width="900" height="600" fill="#ffffff"></rect><defs><linearGradient id="grad1_0" x1="33.3%" y1="100%" x2="100%" y2="0%"><stop offset="20%" stop-color="#fbae3c" stop-opacity="1"></stop><stop offset="80%" stop-color="#fbae3c" stop-opacity="1"></stop></linearGradient></defs><defs><linearGradient id="grad1_1" x1="33.3%" y1="100%" x2="100%" y2="0%"><stop offset="20%" stop-color="#fbae3c" stop-opacity="1"></stop><stop offset="80%" stop-color="#ffbb5f" stop-opacity="1"></stop></linearGradient></defs><defs><linearGradient id="grad1_2" x1="33.3%" y1="100%" x2="100%" y2="0%"><stop offset="20%" stop-color="#ffc880" stop-opacity="1"></stop><stop offset="80%" stop-color="#ffbb5f" stop-opacity="1"></stop></linearGradient></defs><defs><linearGradient id="grad1_3" x1="33.3%" y1="100%" x2="100%" y2="0%"><stop offset="20%" stop-color="#ffc880" stop-opacity="1"></stop><stop offset="80%" stop-color="#ffd69f" stop-opacity="1"></stop></linearGradient></defs><defs><linearGradient id="grad1_4" x1="33.3%" y1="100%" x2="100%" y2="0%"><stop offset="20%" stop-color="#ffe3bf" stop-opacity="1"></stop><stop offset="80%" stop-color="#ffd69f" stop-opacity="1"></stop></linearGradient></defs><defs><linearGradient id="grad1_5" x1="33.3%" y1="100%" x2="100%" y2="0%"><stop offset="20%" stop-color="#ffe3bf" stop-opacity="1"></stop><stop offset="80%" stop-color="#fff1df" stop-opacity="1"></stop></linearGradient></defs><defs><linearGradient id="grad1_6" x1="33.3%" y1="100%" x2="100%" y2="0%"><stop offset="20%" stop-color="#ffffff" stop-opacity="1"></stop><stop offset="80%" stop-color="#fff1df" stop-opacity="1"></stop></linearGradient></defs><defs><linearGradient id="grad2_0" x1="0%" y1="100%" x2="66.7%" y2="0%"><stop offset="20%" stop-color="#fbae3c" stop-opacity="1"></stop><stop offset="80%" stop-color="#fbae3c" stop-opacity="1"></stop></linearGradient></defs><defs><linearGradient id="grad2_1" x1="0%" y1="100%" x2="66.7%" y2="0%"><stop offset="20%" stop-color="#ffbb5f" stop-opacity="1"></stop><stop offset="80%" stop-color="#fbae3c" stop-opacity="1"></stop></linearGradient></defs><defs><linearGradient id="grad2_2" x1="0%" y1="100%" x2="66.7%" y2="0%"><stop offset="20%" stop-color="#ffbb5f" stop-opacity="1"></stop><stop offset="80%" stop-color="#ffc880" stop-opacity="1"></stop></linearGradient></defs><defs><linearGradient id="grad2_3" x1="0%" y1="100%" x2="66.7%" y2="0%"><stop offset="20%" stop-color="#ffd69f" stop-opacity="1"></stop><stop offset="80%" stop-color="#ffc880" stop-opacity="1"></stop></linearGradient></defs><defs><linearGradient id="grad2_4" x1="0%" y1="100%" x2="66.7%" y2="0%"><stop offset="20%" stop-color="#ffd69f" stop-opacity="1"></stop><stop offset="80%" stop-color="#ffe3bf" stop-opacity="1"></stop></linearGradient></defs><defs><linearGradient id="grad2_5" x1="0%" y1="100%" x2="66.7%" y2="0%"><stop offset="20%" stop-color="#fff1df" stop-opacity="1"></stop><stop offset="80%" stop-color="#ffe3bf" stop-opacity="1"></stop></linearGradient></defs><defs><linearGradient id="grad2_6" x1="0%" y1="100%" x2="66.7%" y2="0%"><stop offset="20%" stop-color="#fff1df" stop-opacity="1"></stop><stop offset="80%" stop-color="#ffffff" stop-opacity="1"></stop></linearGradient></defs><g transform="translate(900, 600)"><path d="M-486.7 0C-485.6 -32.5 -484.5 -65 -465.9 -92.7C-447.2 -120.4 -411 -143.3 -369.6 -153.1C-328.1 -162.9 -281.4 -159.5 -266.9 -178.3C-252.4 -197.2 -270.1 -238.2 -268 -268C-265.9 -297.8 -243.9 -316.2 -223.9 -335.1C-203.9 -353.9 -185.9 -373.1 -165.7 -400C-145.5 -427 -123 -461.7 -95 -477.4C-67 -493.1 -33.5 -489.9 0 -486.7L0 0Z" fill="#fff8ef"></path><path d="M-417.2 0C-416.3 -27.8 -415.3 -55.7 -399.3 -79.4C-383.3 -103.2 -352.3 -122.8 -316.8 -131.2C-281.2 -139.6 -241.2 -136.7 -228.8 -152.9C-216.4 -169 -231.5 -204.2 -229.7 -229.7C-227.9 -255.2 -209 -271.1 -191.9 -287.2C-174.8 -303.4 -159.4 -319.8 -142 -342.9C-124.7 -366 -105.4 -395.7 -81.4 -409.2C-57.4 -422.7 -28.7 -420 0 -417.2L0 0Z" fill="#ffeacf"></path><path d="M-347.7 0C-346.9 -23.2 -346.1 -46.4 -332.8 -66.2C-319.4 -86 -293.6 -102.4 -264 -109.3C-234.4 -116.3 -201 -113.9 -190.6 -127.4C-180.3 -140.8 -192.9 -170.2 -191.4 -191.4C-189.9 -212.7 -174.2 -225.9 -159.9 -239.3C-145.7 -252.8 -132.8 -266.5 -118.4 -285.7C-103.9 -305 -87.8 -329.8 -67.8 -341C-47.8 -352.2 -23.9 -350 0 -347.7L0 0Z" fill="#ffddaf"></path><path d="M-278.1 0C-277.5 -18.6 -276.9 -37.1 -266.2 -53C-255.6 -68.8 -234.9 -81.9 -211.2 -87.5C-187.5 -93.1 -160.8 -91.1 -152.5 -101.9C-144.2 -112.7 -154.4 -136.1 -153.1 -153.1C-151.9 -170.1 -139.4 -180.7 -127.9 -191.5C-116.5 -202.2 -106.3 -213.2 -94.7 -228.6C-83.1 -244 -70.3 -263.8 -54.3 -272.8C-38.3 -281.8 -19.1 -280 0 -278.1L0 0Z" fill="#ffcf90"></path><path d="M-208.6 0C-208.1 -13.9 -207.7 -27.8 -199.7 -39.7C-191.7 -51.6 -176.1 -61.4 -158.4 -65.6C-140.6 -69.8 -120.6 -68.4 -114.4 -76.4C-108.2 -84.5 -115.8 -102.1 -114.9 -114.9C-113.9 -127.6 -104.5 -135.5 -96 -143.6C-87.4 -151.7 -79.7 -159.9 -71 -171.4C-62.3 -183 -52.7 -197.9 -40.7 -204.6C-28.7 -211.3 -14.3 -210 0 -208.6L0 0Z" fill="#ffc270"></path><path d="M-139.1 0C-138.8 -9.3 -138.4 -18.6 -133.1 -26.5C-127.8 -34.4 -117.4 -40.9 -105.6 -43.7C-93.7 -46.5 -80.4 -45.6 -76.3 -51C-72.1 -56.3 -77.2 -68.1 -76.6 -76.6C-76 -85.1 -69.7 -90.4 -64 -95.7C-58.3 -101.1 -53.1 -106.6 -47.3 -114.3C-41.6 -122 -35.1 -131.9 -27.1 -136.4C-19.1 -140.9 -9.6 -140 0 -139.1L0 0Z" fill="#fdb54e"></path><path d="M-69.5 0C-69.4 -4.6 -69.2 -9.3 -66.6 -13.2C-63.9 -17.2 -58.7 -20.5 -52.8 -21.9C-46.9 -23.3 -40.2 -22.8 -38.1 -25.5C-36.1 -28.2 -38.6 -34 -38.3 -38.3C-38 -42.5 -34.8 -45.2 -32 -47.9C-29.1 -50.6 -26.6 -53.3 -23.7 -57.1C-20.8 -61 -17.6 -66 -13.6 -68.2C-9.6 -70.4 -4.8 -70 0 -69.5L0 0Z" fill="#fbae3c"></path></g><g transform="translate(0, 0)"><path d="M486.7 0C468.2 30.7 449.7 61.4 422.7 84.1C395.8 106.8 360.5 121.6 340 140.8C319.5 160.1 313.9 183.9 296.8 198.3C279.7 212.8 251.2 218 242.5 242.5C233.9 267.1 245.2 311 242.2 362.5C239.3 414.1 222 473.3 186.3 449.7C150.5 426.1 96.2 319.5 62 311.9C27.9 304.3 14 395.5 0 486.7L0 0Z" fill="#fff8ef"></path><path d="M417.2 0C401.3 26.3 385.4 52.6 362.3 72.1C339.2 91.5 309 104.2 291.4 120.7C273.9 137.2 269.1 157.6 254.4 170C239.8 182.4 215.3 186.9 207.9 207.9C200.5 228.9 210.2 266.5 207.6 310.7C205.1 354.9 190.3 405.7 159.7 385.5C129 365.2 82.4 273.9 53.2 267.3C23.9 260.8 12 339 0 417.2L0 0Z" fill="#ffeacf"></path><path d="M347.7 0C334.4 21.9 321.2 43.8 301.9 60.1C282.7 76.3 257.5 86.8 242.8 100.6C228.2 114.4 224.2 131.3 212 141.7C199.8 152 179.4 155.7 173.2 173.2C167.1 190.8 175.1 222.1 173 258.9C170.9 295.8 158.6 338.1 133.1 321.2C107.5 304.3 68.7 228.2 44.3 222.8C19.9 217.3 10 282.5 0 347.7L0 0Z" fill="#ffddaf"></path><path d="M278.1 0C267.5 17.5 256.9 35.1 241.6 48C226.2 61 206 69.5 194.3 80.5C182.6 91.5 179.4 105.1 169.6 113.3C159.9 121.6 143.5 124.6 138.6 138.6C133.7 152.6 140.1 177.7 138.4 207.2C136.7 236.6 126.9 270.5 106.4 257C86 243.5 55 182.6 35.5 178.2C15.9 173.9 8 226 0 278.1L0 0Z" fill="#ffcf90"></path><path d="M208.6 0C200.7 13.1 192.7 26.3 181.2 36C169.6 45.8 154.5 52.1 145.7 60.4C136.9 68.6 134.5 78.8 127.2 85C119.9 91.2 107.6 93.4 103.9 103.9C100.2 114.5 105.1 133.3 103.8 155.4C102.5 177.5 95.2 202.9 79.8 192.7C64.5 182.6 41.2 136.9 26.6 133.7C12 130.4 6 169.5 0 208.6L0 0Z" fill="#ffc270"></path><path d="M139.1 0C133.8 8.8 128.5 17.5 120.8 24C113.1 30.5 103 34.7 97.1 40.2C91.3 45.7 89.7 52.5 84.8 56.7C79.9 60.8 71.8 62.3 69.3 69.3C66.8 76.3 70.1 88.8 69.2 103.6C68.4 118.3 63.4 135.2 53.2 128.5C43 121.7 27.5 91.3 17.7 89.1C8 86.9 4 113 0 139.1L0 0Z" fill="#fdb54e"></path><path d="M69.5 0C66.9 4.4 64.2 8.8 60.4 12C56.5 15.3 51.5 17.4 48.6 20.1C45.6 22.9 44.8 26.3 42.4 28.3C40 30.4 35.9 31.1 34.6 34.6C33.4 38.2 35 44.4 34.6 51.8C34.2 59.2 31.7 67.6 26.6 64.2C21.5 60.9 13.7 45.6 8.9 44.6C4 43.5 2 56.5 0 69.5L0 0Z" fill="#fbae3c"></path></g></svg>